# xmcd CD database file
#
# Track frame offsets:
#	150
#	12084
#	22896
#	33046
#	44165
#	56222
#	71004
#	90097
#	100955
#	111122
#	122418
#	132314
#	142499
#	155848
#	165600
#	175749
#	186063
#	195830
#	206772
#	218841
#	229792
#	239070
#	268985
#	279708
#	293688
#
# Disc length: 4078 seconds
#
# Revision: 3
# Processed by: cddbd v1.5.2PL0 Copyright (c) Steve Scherf et al.
# Submitted via: CDex 1.51
#
DISCID=730fec19
DTITLE=Various Artist - A Complete Introduction To Northern Soul CD4
DYEAR=2008
DGENRE=Soul/R&B
TTITLE0=Yvonne Baker - You Didn't Say A Word
TTITLE1=Bobby Paris - Night Owl
TTITLE2=Vickie Baines - Country Girl
TTITLE3=Chubby Checker - You Just Don't Know (What You Did To Me)
TTITLE4=The 3 1/2 - Angel Baby
TTITLE5=Evie Sands - Picture Me Gone
TTITLE6=Terry Callier - Ordinary Joe
TTITLE7=Joy Lovejoy - In Orbit
TTITLE8=Patti and The Emblems - I'm Gonna Love You A Long Time
TTITLE9=The Lewis Sisters - Breakaway
TTITLE10=John E. Paul - I Wanna Know
TTITLE11=The Sapphires - Gotta Have Your Love
TTITLE12=J.J. Barnes - Every Time I See You, I Go Wild!
TTITLE13=The Charades - Key To My Happiness
TTITLE14=Spyder Turner - I Can't Make It Anymore
TTITLE15=Edwin Starr - Stop Her On The Sight (S.O.S.)
TTITLE16=Sammy Davis, Jr. - You Can Count On Me
TTITLE17=Chuck Wood - Seven Days Too Long
TTITLE18=The Casualeers - Dance, Dance, Dance
TTITLE19=Wynder K. Frog - Green Door
TTITLE20=Jackie Edwards - I Feel So Bad
TTITLE21=The Funk Brothers - Ain't No Mountain High Enough
TTITLE22=Jimmy Radcliffe - Long After Tonight Is All Over
TTITLE23=Tobi Legend - Time Will Pass You By
TTITLE24=Dean Parrish - I'm On My Way
EXTD=YEAR: 2008
EXTT0=
EXTT1=
EXTT2=
EXTT3=
EXTT4=
EXTT5=
EXTT6=
EXTT7=
EXTT8=
EXTT9=
EXTT10=
EXTT11=
EXTT12=
EXTT13=
EXTT14=
EXTT15=
EXTT16=
EXTT17=
EXTT18=
EXTT19=
EXTT20=
EXTT21=
EXTT22=
EXTT23=
EXTT24=
PLAYORDER=
